<svg width="13" height="16" viewBox="0 0 13 16" fill="none" xmlns="http://www.w3.org/2000/svg">
<path fill-rule="evenodd" clip-rule="evenodd" d="M11.4 8.82676C11.9567 7.95009 12.277 6.92295 12.277 5.82483C12.277 2.60787 9.52867 0 6.13848 0C2.74829 0 0 2.60787 0 5.82483C0 6.92153 0.319402 7.94743 0.874752 8.82335L4.42984 14.6663C5.20899 15.9469 7.06788 15.9469 7.84703 14.6663L11.4 8.82676ZM8.79842 5.82484C8.79842 7.21886 7.60749 8.34894 6.13841 8.34894C4.66933 8.34894 3.4784 7.21886 3.4784 5.82484C3.4784 4.43082 4.66933 3.30075 6.13841 3.30075C7.60749 3.30075 8.79842 4.43082 8.79842 5.82484Z" fill="#050417"/>
</svg>
